<?xml version="1.0" encoding="utf-8"?>
<!-- Generator: Adobe Illustrator 27.2.0, SVG Export Plug-In . SVG Version: 6.00 Build 0)  -->
<svg version="1.1" id="Layer_1" xmlns="http://www.w3.org/2000/svg" xmlns:xlink="http://www.w3.org/1999/xlink" x="0px" y="0px"
	 viewBox="0 0 211.77 20" style="enable-background:new 0 0 211.77 20;" xml:space="preserve">
<style type="text/css">
	.st0{fill:#FF4800;}
</style>
<polygon class="st0" points="21.24,20 0,0 14.59,0 35.83,20 "/>
<polygon class="st0" points="0,13.87 6.51,20 0,20 "/>
<polygon class="st0" points="50.57,20 29.32,0 43.91,0 65.16,20 "/>
<polygon class="st0" points="79.89,20 58.65,0 73.24,0 94.48,20 "/>
<polygon class="st0" points="109.21,20 87.97,0 102.56,0 123.8,20 "/>
<polygon class="st0" points="138.54,20 117.29,0 131.88,0 153.12,20 "/>
<polygon class="st0" points="138.54,20 117.29,0 131.88,0 153.12,20 "/>
<polygon class="st0" points="167.86,20 146.62,0 161.2,0 182.45,20 "/>
<polygon class="st0" points="197.18,20 175.94,0 190.53,0 211.77,20 "/>
<polygon class="st0" points="211.77,6.13 205.26,0 211.77,0 "/>
</svg>
