<?xml version="1.0" encoding="utf-8"?>
<!-- Generator: Adobe Illustrator 27.2.0, SVG Export Plug-In . SVG Version: 6.00 Build 0)  -->
<svg version="1.1" id="Default" xmlns="http://www.w3.org/2000/svg" xmlns:xlink="http://www.w3.org/1999/xlink" x="0px" y="0px"
	 viewBox="0 0 300 140" style="enable-background:new 0 0 300 140;" xml:space="preserve">
<style type="text/css">
	.st0{fill:#FFFFFF;}
	.st1{fill:#FFFFFF;stroke:#FFFFFF;stroke-width:2;stroke-miterlimit:10;}
</style>
<path class="st0" d="M215.55,55.36c-4.01,0-8.03,0-12.04,0c-0.5,0-1,0-1.51,0c-0.25,0-0.5,0-0.75,0c-0.13,0-0.25,0-0.38,0
	c-0.03,0-0.04,0.02-0.04-0.02c0-0.01,0-0.03,0-0.04c0-0.03,0-0.06,0-0.09c0-0.48,0-0.96,0-1.44c0-0.96,0-1.92,0-2.87
	c0-0.96,0-1.92,0-2.87c0-1.34,0.05-2.68,0.16-4.02c0.23-2.76,0.68-5.45,1.36-8.13c2.79-10.92,9.27-20.54,18.34-27.24
	c0.29-0.22,0.59-0.43,0.88-0.64c0.15-0.1,0.3-0.21,0.44-0.31c0.04-0.03,0.07-0.05,0.11-0.08c0.01-0.01,0.02-0.01,0.03-0.02
	c0,0,0.01-0.01,0.01-0.01c0,0,0.01-0.02,0.01-0.01c0.01,0.02,0.02,0.03,0.03,0.05c0.04,0.06,0.07,0.13,0.11,0.19
	c0.3,0.52,0.6,1.03,0.9,1.55c0.6,1.03,1.19,2.07,1.79,3.1c0.15,0.26,0.3,0.52,0.45,0.78c0.07,0.13,0.15,0.26,0.22,0.39
	c0.04,0.06,0.07,0.13,0.11,0.19c0.02,0.03,0.04,0.06,0.06,0.1c0,0.01,0.01,0.02,0.01,0.02c0,0,0,0.01,0.01,0.01
	c0,0,0.01,0.01,0,0.01c-0.02,0.01-0.04,0.03-0.05,0.04c-0.58,0.41-1.15,0.83-1.71,1.27c-1.14,0.89-2.22,1.84-3.26,2.84
	c-4.28,4.15-7.62,9.16-9.8,14.71c-1.09,2.77-1.86,5.59-2.33,8.53c-0.23,1.43-0.39,2.86-0.47,4.3c-0.04,0.71-0.06,1.42-0.07,2.13
	c0,0.04,0,0.09,0,0.13c0,0.02,0,0.04,0,0.07c0,0.01,0,0.01,0,0.01c0.01,0,0.02,0,0.03,0c0.02,0,0.03,0,0.05,0c0.14,0,0.27,0,0.41,0
	c0.27,0,0.54,0,0.82,0c0.54,0,1.09,0,1.63,0c1.09,0,2.18,0,3.26,0c0.27,0,0.54,0,0.82,0c0.07,0,0.14,0,0.2,0c0.03,0,0.07,0,0.1,0
	c0.01,0,0.04,0.01,0.04-0.01c0-0.01,0-0.02,0-0.03c0-0.07,0-0.13,0-0.2c0-0.27,0.01-0.54,0.02-0.81c0.03-1.11,0.12-2.22,0.26-3.32
	c0.3-2.33,0.83-4.58,1.59-6.8c3.86-11.18,13.22-19.58,24.76-22.21c2.59-0.59,5.17-0.87,7.83-0.85c2.67,0.02,5.25,0.34,7.85,0.97
	c5.63,1.37,10.81,4.14,15.08,8.05c3.75,3.45,6.68,7.68,8.59,12.41c0.91,2.25,1.56,4.53,1.97,6.92c0.2,1.13,0.34,2.27,0.42,3.41
	c0.04,0.56,0.07,1.11,0.08,1.67c0,0.14,0.01,0.28,0.01,0.41c0,0.07,0,0.14,0,0.21c0,0.03,0,0.07,0,0.1c0,0.02,0,0.03,0,0.05
	c0,0.01-0.01,0.02,0.01,0.02c0.02,0,0.03,0,0.05,0c0.55,0,1.11,0,1.66,0c1.11,0,2.21,0,3.32,0c0.55,0,1.11,0,1.66,0
	c0.14,0,0.28,0,0.41,0c0.07,0,0.14,0,0.21,0c0.01,0,0.04,0.01,0.04-0.01c0-0.01,0-0.02,0-0.03c0-0.02,0-0.04,0-0.07
	c0-0.18,0-0.36,0-0.54c-0.02-1.46-0.12-2.91-0.3-4.36c-0.36-3-1.03-5.87-2.03-8.72c-2-5.73-5.24-10.96-9.48-15.3
	c-1.02-1.04-2.08-2.03-3.21-2.96c-0.55-0.46-1.11-0.9-1.69-1.33c-0.28-0.21-0.57-0.42-0.86-0.63c-0.04-0.03-0.07-0.05-0.11-0.08
	c0,0-0.01-0.01-0.01-0.01c-0.01,0,0-0.01,0-0.01c0-0.01,0.01-0.02,0.01-0.02c0.01-0.02,0.02-0.03,0.03-0.05
	c0.04-0.06,0.07-0.13,0.11-0.19c0.07-0.13,0.15-0.26,0.22-0.39c0.6-1.04,1.2-2.08,1.8-3.12c0.3-0.52,0.6-1.04,0.9-1.56
	c0.15-0.26,0.3-0.52,0.45-0.78c0.04-0.06,0.07-0.13,0.11-0.19c0.01-0.02,0.02-0.03,0.03-0.05c0-0.01,0.01-0.02,0.01-0.02
	c0,0,0-0.01,0.01-0.01c0,0,0.01,0.01,0.01,0.01c0.04,0.03,0.07,0.05,0.11,0.08c0.15,0.1,0.3,0.21,0.45,0.31
	c4.93,3.47,9.17,7.81,12.52,12.82c3.41,5.1,5.84,10.8,7.14,16.8c0.64,2.92,1,5.85,1.1,8.84c0.04,1.19,0.03,2.38,0.03,3.57
	c0,1.04,0,2.08,0,3.13c0,0.56,0,1.12,0,1.69c0,0.14,0,0.28,0,0.42c0,0.04,0,0.07,0,0.11c0,0.01,0.01,0.02,0,0.02
	c-0.02,0-0.04,0-0.06,0c-0.04,0-0.07,0-0.11,0c-0.15,0-0.29,0-0.44,0c-0.59,0-1.18,0-1.77,0c-2.36,0-4.71,0-7.07,0
	c-1.18,0-2.36,0-3.53,0c-0.29,0-0.59,0-0.88,0c-0.15,0-0.29,0-0.44,0c-0.07,0-0.15,0-0.22,0c-0.04,0-0.07,0-0.11,0
	c-0.02,0-0.04,0-0.06,0c-0.01,0-0.03-0.01-0.03,0.01c0,0.32,0,0.65,0,0.97c0,1.29,0,2.59,0,3.88c0,5.17,0,10.34,0,15.52
	c0,5.17,0,10.34,0,15.52c0,1.28,0.01,2.57,0,3.85c-0.01,1.19-0.08,2.38-0.21,3.57c-0.28,2.52-0.83,4.94-1.66,7.34
	c-3.86,11.18-13.22,19.58-24.76,22.21c-2.59,0.59-5.17,0.87-7.83,0.85c-2.67-0.02-5.25-0.34-7.85-0.97
	c-5.63-1.37-10.81-4.14-15.08-8.05c-4.34-3.98-7.57-9.01-9.39-14.61c-0.85-2.62-1.37-5.25-1.58-7.99c-0.11-1.47-0.1-2.51-0.1-3.99
	c0-1.41,0-2.82,0-4.23C215.55,77.95,215.55,66.66,215.55,55.36z M276.65,55.36h-53.74v32.13h53.74V55.36z M276.65,94.86
	c-11.51,0-23.03,0-34.54,0c-5.76,0-11.51,0-17.27,0c-0.37,0-0.73,0-1.1,0c-0.18,0-0.37,0-0.55,0c-0.09,0-0.18,0-0.27,0
	c0,0-0.01,0-0.01,0c0,0.01,0,0.01,0,0.02c0,0.01,0,0.02,0,0.03c0,0.02,0,0.04,0,0.06c0,0.04,0,0.08,0,0.12
	c0.01,0.67,0.04,1.34,0.09,2.01c0.12,1.4,0.34,2.77,0.67,4.13c0.71,2.89,1.89,5.64,3.49,8.14c6.44,10.03,18.73,14.62,30.17,11.26
	C268.79,117.28,276.65,106.78,276.65,94.86z M222.92,48c11.51,0,23.03,0,34.54,0c5.76,0,11.51,0,17.27,0c0.37,0,0.73,0,1.1,0
	c0.18,0,0.37,0,0.55,0c0.09,0,0.18,0,0.27,0c0,0,0.01,0,0.01,0c0-0.01,0-0.01,0-0.02c0-0.01,0-0.02,0-0.03c0-0.02,0-0.04,0-0.06
	c0-0.04,0-0.08,0-0.12c-0.01-0.67-0.04-1.34-0.09-2.01c-0.12-1.4-0.34-2.77-0.67-4.13c-0.71-2.89-1.89-5.64-3.49-8.14
	c-6.44-10.03-18.73-14.62-30.17-11.26C230.78,25.58,222.92,36.08,222.92,48z"/>
<path class="st1" d="M23.46,7.04c9.78,0,15.89,1.43,18.34,4.28c2.45,2.86,3.68,9.99,3.68,21.41c0,12.3-1.17,19.89-3.52,22.77
	c-2.35,2.88-8.51,4.32-18.49,4.32c-9.93,0-16.09-1.43-18.47-4.28C2.59,52.69,1.4,45.31,1.4,33.41v-3.64l0.08-4.89
	c0-6.87,1.55-11.56,4.64-14.08C9.21,8.29,14.99,7.04,23.46,7.04z M23.42,11.96c-8.19,0-12.97,0.91-14.36,2.73
	c-1.39,1.82-2.08,8.06-2.08,18.72c0,10.69,0.69,16.94,2.08,18.76c1.39,1.82,6.18,2.73,14.36,2.73c8.21,0,13.01-0.91,14.4-2.73
	c1.39-1.82,2.08-8.07,2.08-18.76v-3.37l-0.04-4.89c0-5.71-0.96-9.33-2.88-10.88C35.06,12.73,30.54,11.96,23.42,11.96z"/>
<path class="st1" d="M52.14,59.29V7.57h23.95c7.4,0,12.42,1.63,15.04,4.89c2.63,3.26,3.94,9.5,3.94,18.72
	c0,11.22-1.17,18.71-3.51,22.47c-2.34,3.76-7,5.65-14,5.65H52.14z M57.98,54.37h16.86c6.19,0,10.18-1.24,11.97-3.71
	c1.79-2.48,2.69-8,2.69-16.56c0-9.4-0.78-15.35-2.33-17.85c-1.55-2.5-5.27-3.75-11.16-3.75H57.98V54.37z"/>
<path class="st1" d="M108.68,7.57v51.73h-5.84V7.57H108.68z"/>
<path class="st1" d="M162.83,7.57v51.73h-9.59l-21.68-35.2l-3.52-5.8l-1.74-2.88l-1.74-2.88h-0.15l0.04,1.93l0.04,1.97v3.87v38.99
	h-5.84V7.57h9.55l18.91,30.85l4.93,8.11l2.46,4.02l2.43,4.05h0.15l-0.04-1.93L157,50.69v-3.87V7.57H162.83z"/>
<path class="st1" d="M37.36,108.32h5.8v1.97c0,7.05-1.2,11.45-3.6,13.21c-2.4,1.76-8.44,2.63-18.11,2.63
	c-8.67,0-14.17-1.55-16.52-4.64c-2.35-3.09-3.52-10.38-3.52-21.85c0-8.97,0.27-14.61,0.8-16.92c0.53-2.31,2.05-4.38,4.55-6.2
	c2.93-2.12,9.26-3.18,18.99-3.18c6.59,0,11.03,1.02,13.32,3.07c2.29,2.05,3.43,6,3.43,11.86l0.04,1.4h-5.8l-0.04-1.59
	c0-4.17-0.68-6.85-2.03-8.03c-1.35-1.19-4.4-1.78-9.15-1.78c-8.34,0-13.43,0.7-15.27,2.08c-1.84,1.39-2.77,5.24-2.77,11.56
	c0,14.53,0.62,23.04,1.86,25.54c1.24,2.5,5.47,3.75,12.69,3.75c6.87,0,11.16-0.54,12.87-1.63c1.71-1.09,2.56-3.81,2.56-8.19
	L37.36,108.32z"/>
<path class="st1" d="M68.66,73.34c9.78,0,15.89,1.43,18.34,4.28c2.45,2.86,3.68,9.99,3.68,21.41c0,12.3-1.17,19.89-3.52,22.77
	s-8.51,4.32-18.49,4.32c-9.93,0-16.09-1.43-18.47-4.28c-2.39-2.85-3.58-10.23-3.58-22.13v-3.64l0.08-4.89
	c0-6.87,1.55-11.56,4.64-14.08C54.42,74.6,60.2,73.34,68.66,73.34z M68.63,78.27c-8.19,0-12.97,0.91-14.36,2.73
	c-1.39,1.82-2.08,8.06-2.08,18.72c0,10.69,0.69,16.94,2.08,18.76c1.39,1.82,6.18,2.73,14.36,2.73c8.21,0,13.01-0.91,14.4-2.73
	c1.39-1.82,2.08-8.07,2.08-18.76v-3.37l-0.04-4.89c0-5.71-0.96-9.33-2.88-10.88C80.27,79.04,75.75,78.27,68.63,78.27z"/>
<path class="st1" d="M97.35,125.6V73.87h24.63c5.56,0,9.47,1.1,11.75,3.3s3.41,6.01,3.41,11.44c0,4.77-0.62,8.1-1.86,9.99
	c-1.24,1.88-3.6,3.1-7.09,3.66v0.11c5.48,0.4,8.22,3.74,8.22,10v13.23h-5.84v-11.9c0-6.04-2.61-9.06-7.84-9.06h-1.93h-17.62v20.96
	H97.35z M103.19,99.72h16.86c4.45,0,7.48-0.68,9.09-2.03c1.62-1.35,2.43-3.9,2.43-7.64c0-4.67-0.6-7.72-1.8-9.13
	c-1.2-1.41-3.77-2.12-7.71-2.12h-18.87V99.72z"/>
<path class="st1" d="M145.7,125.6V73.87h21.71h1.97c5.84,0,9.81,1.12,11.94,3.37c2.12,2.25,3.18,6.46,3.18,12.62
	c0,5.91-1.11,9.94-3.32,12.09c-2.21,2.15-6.36,3.22-12.45,3.22l-2.27,0.04h-14.93v20.39H145.7z M151.54,100.29h13.83
	c5.78,0,9.49-0.59,11.12-1.78c1.63-1.19,2.44-3.92,2.44-8.19c0-5-0.55-8.17-1.65-9.49c-1.1-1.33-3.71-1.99-7.83-1.99l-2.24-0.04
	h-15.69V100.29z"/>
</svg>
